<?xml version="1.0" standalone="no"?><!DOCTYPE svg PUBLIC "-//W3C//DTD SVG 1.1//EN" "http://www.w3.org/Graphics/SVG/1.1/DTD/svg11.dtd"><svg t="1573464925213" class="icon" viewBox="0 0 1024 1024" version="1.1" xmlns="http://www.w3.org/2000/svg" p-id="2199" xmlns:xlink="http://www.w3.org/1999/xlink" width="90" height="90"><defs><style type="text/css"></style></defs><path d="M512 1000.727273a488.727273 488.727273 0 1 1 488.727273-488.727273 488.727273 488.727273 0 0 1-488.727273 488.727273z m0-930.909091a442.181818 442.181818 0 1 0 442.181818 442.181818A442.181818 442.181818 0 0 0 512 69.818182z" fill="#707070" p-id="2200"></path><path d="M302.545455 418.909091a46.545455 46.545455 0 1 1 46.545454-46.545455 46.545455 46.545455 0 0 1-46.545454 46.545455z m0-46.545455zM721.454545 418.909091a46.545455 46.545455 0 1 1 46.545455-46.545455 46.545455 46.545455 0 0 1-46.545455 46.545455z m0-46.545455zM418.909091 768a116.363636 116.363636 0 0 1-83.781818-197.818182l32.581818 32.581818A69.818182 69.818182 0 1 0 488.727273 651.636364h46.545454a116.363636 116.363636 0 0 1-116.363636 116.363636z" fill="#707070" p-id="2201"></path><path d="M605.090909 768a116.363636 116.363636 0 0 1-116.363636-116.363636h46.545454a69.818182 69.818182 0 1 0 121.018182-48.872728l32.581818-32.581818A116.363636 116.363636 0 0 1 605.090909 768z" fill="#707070" p-id="2202"></path><path d="M488.727273 628.363636h46.545454v23.272728h-46.545454z" fill="#707070" p-id="2203"></path></svg>